<svg xmlns="http://www.w3.org/2000/svg" width="1378" height="505" viewBox="0 0 1378 505">
  <g fill="none" fill-rule="evenodd" transform="translate(-65 -56)">
    <path fill="#271B43" d="M362.293108,495.705075 C367.101816,493.431868 374.897064,493.431297 379.706981,495.705075 L422.393076,515.883951 C427.201784,518.157157 427.202993,521.842182 422.393076,524.115961 L379.706981,544.294836 C374.898272,546.568043 367.103025,546.568614 362.293108,544.294836 L319.607012,524.115961 C314.798304,521.842754 314.797095,518.157729 319.607012,515.883951 L362.293108,495.705075 Z"/>
    <path fill="#BFAEE3" d="M110.293108,79.7050751 C115.101816,77.4318682 122.897064,77.4312968 127.706981,79.7050751 L170.393076,99.8839506 C175.201784,102.157157 175.202993,105.842182 170.393076,108.115961 L127.706981,128.294836 C122.898272,130.568043 115.103025,130.568614 110.293108,128.294836 L67.6070122,108.115961 C62.798304,105.842754 62.7970951,102.157729 67.6070122,99.8839506 L110.293108,79.7050751 Z" opacity=".1"/>
    <path fill="#34215C" d="M1315.29311,466.705075 C1320.10182,464.431868 1327.89706,464.431297 1332.70698,466.705075 L1375.39308,486.883951 C1380.20178,489.157157 1380.20299,492.842182 1375.39308,495.115961 L1332.70698,515.294836 C1327.89827,517.568043 1320.10302,517.568614 1315.29311,515.294836 L1272.60701,495.115961 C1267.7983,492.842754 1267.7971,489.157729 1272.60701,486.883951 L1315.29311,466.705075 Z"/>
    <path fill="#271B43" d="M425.293108,524.705075 C430.101816,522.431868 437.897064,522.431297 442.706981,524.705075 L485.393076,544.883951 C490.201784,547.157157 490.202993,550.842182 485.393076,553.115961 L442.706981,573.294836 C437.898272,575.568043 430.103025,575.568614 425.293108,573.294836 L382.607012,553.115961 C377.798304,550.842754 377.797095,547.157729 382.607012,544.883951 L425.293108,524.705075 Z"/>
    <path fill="#BFAEE3" d="M174.293108 108.705075C179.101816 106.431868 186.897064 106.431297 191.706981 108.705075L234.393076 128.883951C239.201784 131.157157 239.202993 134.842182 234.393076 137.115961L191.706981 157.294836C186.898272 159.568043 179.103025 159.568614 174.293108 157.294836L131.607012 137.115961C126.798304 134.842754 126.797095 131.157729 131.607012 128.883951L174.293108 108.705075zM46.2931078 108.705075C51.101816 106.431868 58.8970635 106.431297 63.7069806 108.705075L106.393076 128.883951C111.201784 131.157157 111.202993 134.842182 106.393076 137.115961L63.7069806 157.294836C58.8982724 159.568043 51.1030249 159.568614 46.2931078 157.294836L3.60701215 137.115961C-1.20169603 134.842754-1.20290492 131.157729 3.60701215 128.883951L46.2931078 108.705075z" opacity=".1"/>
    <path fill="#34215C" d="M1379.29311 495.705075C1384.10182 493.431868 1391.89706 493.431297 1396.70698 495.705075L1439.39308 515.883951C1444.20178 518.157157 1444.20299 521.842182 1439.39308 524.115961L1396.70698 544.294836C1391.89827 546.568043 1384.10302 546.568614 1379.29311 544.294836L1336.60701 524.115961C1331.7983 521.842754 1331.7971 518.157729 1336.60701 515.883951L1379.29311 495.705075zM1379.29311 437.705075C1384.10182 435.431868 1391.89706 435.431297 1396.70698 437.705075L1439.39308 457.883951C1444.20178 460.157157 1444.20299 463.842182 1439.39308 466.115961L1396.70698 486.294836C1391.89827 488.568043 1384.10302 488.568614 1379.29311 486.294836L1336.60701 466.115961C1331.7983 463.842754 1331.7971 460.157729 1336.60701 457.883951L1379.29311 437.705075zM1297.29311 57.7050751C1302.10182 55.4318682 1309.89706 55.4312968 1314.70698 57.7050751L1357.39308 77.8839506C1362.20178 80.1571574 1362.20299 83.8421824 1357.39308 86.1159607L1314.70698 106.294836C1309.89827 108.568043 1302.10302 108.568614 1297.29311 106.294836L1254.60701 86.1159607C1249.7983 83.8427538 1249.7971 80.1577288 1254.60701 77.8839506L1297.29311 57.7050751z"/>
  </g>
</svg>
