<svg xmlns="http://www.w3.org/2000/svg" width="32" height="30" viewBox="0 0 32 30"><path fill="#404040" fill-rule="evenodd" d="M0 1.992C0 .892.89 0 2.002 0h27.996A2 2 0 0 1 32 1.992v26.016c0 1.1-.89 1.992-2.002 1.992H2.002A2 2 0 0 1 0 28.008V1.992zm2 6.007V27c0 .56.446.999.997.999h26.006a.994.994 0 0 0 .997-.999V8A.992.992 0 0 0 29.003 7H2.997A.994.994 0 0 0 2 7.999zM13.5 5a1.5 1.5 0 1 0 0-3 1.5 1.5 0 0 0 0 3zm-5 0a1.5 1.5 0 1 0 0-3 1.5 1.5 0 0 0 0 3zm-5 0a1.5 1.5 0 1 0 0-3 1.5 1.5 0 0 0 0 3zm19.38 18h-2.13v-6.81h-2.64v-1.605c.37.01.727-.017 1.073-.083.345-.065.654-.18.93-.345.275-.165.507-.382.697-.652.19-.27.315-.605.375-1.005h1.695V23zm-11.3-6.255c.23.02.475.02.735 0s.502-.077.728-.172c.225-.096.41-.233.555-.413.145-.18.217-.42.217-.72 0-.45-.15-.795-.45-1.035a1.61 1.61 0 0 0-1.035-.36c-.54 0-.947.177-1.223.533-.275.355-.407.802-.397 1.342H8.685c.02-.54.117-1.032.293-1.477.175-.446.42-.828.735-1.148.315-.32.692-.567 1.132-.742.44-.176.93-.263 1.47-.263.42 0 .84.062 1.26.188.42.125.797.312 1.133.562.335.25.607.555.817.915.21.36.315.775.315 1.245 0 .51-.122.96-.367 1.35-.246.39-.613.655-1.103.825.58.13 1.035.41 1.365.84.33.43.495.945.495 1.545 0 .55-.107 1.04-.322 1.47a3.21 3.21 0 0 1-.863 1.08c-.36.29-.775.51-1.245.66-.47.15-.96.225-1.47.225-.59 0-1.127-.085-1.613-.255a3.383 3.383 0 0 1-1.237-.742 3.291 3.291 0 0 1-.787-1.193c-.186-.47-.273-1.01-.263-1.62h2.025c.01.28.055.547.135.802.08.256.195.475.345.66.15.186.337.333.563.443.225.11.492.165.802.165.48 0 .885-.147 1.215-.442.33-.296.495-.698.495-1.208 0-.4-.077-.705-.232-.915a1.333 1.333 0 0 0-.593-.457 2.48 2.48 0 0 0-.787-.166 15.577 15.577 0 0 0-.818-.022v-1.5z"/></svg>
