<svg xmlns="http://www.w3.org/2000/svg" width="28" height="19" viewBox="0 0 28 19">
  <g fill="#A9A6AF" fill-rule="evenodd">
    <path d="M8 9C9.65685425 9 11 8.25 11 6 11 3.75 9.65685425 3 8 3 6.34314575 3 5 3.75 5 6 5 8.25 6.34314575 9 8 9zM19 8C21.209139 8 23 7 23 4 23 1 21.209139 0 19 0 16.790861 0 15 1 15 4 15 7 16.790861 8 19 8zM13.9931545 19C14.5492199 19 15.0324763 18.5469637 15.0386254 18.0029699 15.0386254 18.0029699 16 11 8 11-.7537976e-13 11 .961374596 18.0029699.961374596 18.0029699.982706817 18.5536144 1.44994876 19 2.00684547 19L13.9931545 19z"/>
    <path d="M16.7593403,19 L26.0620556,19 C26.6183963,19 27.0991438,18.5536886 27.1050941,18.0024554 C27.1050941,18.0024554 28.1156906,10 19.0693996,10 C16.7823708,10 15.138127,10.5114762 13.9578334,11.2758119 C17.4072148,13.5347889 16.8041696,19.0024554 16.8041696,19.0024554 L16.7593403,19 Z"/>
  </g>
</svg>
