<svg xmlns="http://www.w3.org/2000/svg" width="28" height="19" viewBox="0 0 28 19"><g fill="#404040" fill-rule="evenodd"><path d="M8 9c1.657 0 3-.75 3-3S9.657 3 8 3s-3 .75-3 3 1.343 3 3 3zm11-1c2.21 0 4-1 4-4s-1.79-4-4-4-4 1-4 4 1.79 4 4 4zm-5.007 11c.556 0 1.04-.453 1.046-.997C15.039 18.003 16 11 8 11S.961 18.003.961 18.003c.022.55.489.997 1.046.997h11.986z"/><path d="M16.76 19h9.302c.556 0 1.037-.446 1.043-.998 0 0 1.01-8.002-8.036-8.002-2.287 0-3.93.511-5.111 1.276 3.45 2.259 2.846 7.726 2.846 7.726L16.76 19z"/></g></svg>
