<svg xmlns="http://www.w3.org/2000/svg" width="13" height="19" viewBox="0 0 13 19">
  <path fill="#404040" fill-rule="evenodd" d="M4.94999094,2 L7.5,2 C9.43080177,2 11,3.56936833 11,5.5026542 L11,10 L10,10 L10,5.5026542 C10,4.12162882 8.87849275,3 7.5,3 L4.94999094,3 C4.71835578,4.14112016 3.70947896,5 2.5,5 C1.11928813,5 0,3.88071187 0,2.5 C0,1.11928813 1.11928813,0 2.5,0 C3.70947896,0 4.71835578,0.858879839 4.94999094,2 Z M14.0500091,11 L6.94999094,11 C6.71835578,12.1411202 5.70947896,13 4.5,13 C3.11928813,13 2,11.8807119 2,10.5 C2,9.11928813 3.11928813,8 4.5,8 C5.70947896,8 6.71835578,8.85887984 6.94999094,10 L14.0500091,10 C14.2816442,8.85887984 15.290521,8 16.5,8 C17.8807119,8 19,9.11928813 19,10.5 C19,11.8807119 17.8807119,13 16.5,13 C15.290521,13 14.2816442,12.1411202 14.0500091,11 Z" transform="rotate(90 6.5 6.5)"/>
</svg>
