<svg xmlns="http://www.w3.org/2000/svg" width="32" height="32"><path fill="#A9A6AF" fill-rule="evenodd" d="M1.483 27.932c.166.044.34.068.52.068h27.995c.21 0 .413-.032.603-.092l-9.294-9.294-4.19 4.19c-.235.236-.56.328-.867.276-.306.05-.627-.043-.86-.276L11 18.414l-9.517 9.518zM.07 26.518c-.046-.167-.07-.342-.07-.523V7.415L9.586 17 .07 26.518zm31.883-.086c.03-.14.047-.287.047-.437V7.92l-9.28 9.28 9.233 9.232zm-.103-21.19C31.55 4.512 30.834 4 29.998 4H2.002c-.706 0-1.323.362-1.68.91l15.93 15.93L31.85 5.24z"/></svg>
