<svg width="32" height="32" viewBox="0 0 32 32" xmlns="http://www.w3.org/2000/svg"><title>Shape</title><path d="M16 0C7.165 0 0 7.345 0 16.405c0 7.248 4.585 13.398 10.942 15.567.8.152 1.093-.356 1.093-.79 0-.39-.015-1.683-.022-3.054-4.45.993-5.39-1.935-5.39-1.935-.728-1.896-1.777-2.4-1.777-2.4-1.451-1.019.11-.998.11-.998 1.606.116 2.452 1.69 2.452 1.69 1.427 2.509 3.743 1.784 4.656 1.364.144-1.06.559-1.784 1.016-2.193-3.554-.415-7.29-1.822-7.29-8.108 0-1.79.626-3.254 1.65-4.403-.167-.413-.715-2.082.154-4.342 0 0 1.344-.44 4.401 1.682A14.982 14.982 0 0 1 16 7.933c1.36.006 2.73.189 4.008.552 3.054-2.122 4.396-1.682 4.396-1.682.87 2.26.323 3.929.157 4.342 1.026 1.149 1.647 2.612 1.647 4.403 0 6.301-3.743 7.689-7.306 8.095.574.509 1.085 1.507 1.085 3.038 0 2.195-.019 3.961-.019 4.502 0 .436.288.948 1.1.787C27.42 29.798 32 23.65 32 16.405 32 7.345 24.836 0 16 0zM5.993 23.37c-.036.08-.16.105-.275.05-.116-.054-.18-.165-.143-.247.034-.084.16-.107.275-.051.117.053.183.166.143.247zm.787.72c-.077.072-.226.038-.327-.076-.105-.115-.124-.268-.047-.341.079-.073.223-.039.328.075.105.116.125.268.046.341zm.54.92c-.099.07-.259.005-.358-.14-.098-.147-.098-.322.002-.392s.257-.007.358.138c.098.148.098.323-.002.395zm.913 1.068c-.088.099-.275.072-.412-.063-.14-.132-.178-.32-.09-.42.088-.099.276-.07.414.063.139.132.181.322.088.42zm1.18.36c-.039.128-.219.187-.4.132-.181-.056-.3-.207-.263-.337.038-.129.218-.19.401-.131.18.056.3.205.262.336zm1.343.153c.004.135-.15.247-.34.25-.19.004-.346-.106-.348-.239 0-.136.15-.248.342-.25.19-.005.346.104.346.239zm1.32-.052c.022.132-.11.267-.3.303-.185.035-.357-.046-.38-.177-.023-.136.111-.271.297-.306.189-.034.358.046.382.18z" fill="#151513" fill-rule="evenodd"/></svg>