<svg xmlns="http://www.w3.org/2000/svg" width="252" height="207" viewBox="0 0 252 207"><path fill="#e0393e" d="M167.814 159.146c.014 19.363 12.444 36.477 30.071 42.292 8.834 2.917 17.946 4.301 27.195 4.708 6.603.285 13.195-.176 19.296-3.217 4.797-2.395 7.057-6.351 6.84-11.622-.217-5.306-2.593-9.274-7.668-11.386-1.764-.733-3.555-1.33-5.428-1.655-5.598-.999-11.223-1.84-16.793-2.944-9.193-1.831-13.048-6.697-13.17-15.993-.107-8.223 2.124-15.979 4.654-23.652 4.628-14.045 10.868-27.431 16.848-40.927 5.773-13.033 11.825-25.959 15.903-39.686 2.246-7.538 3.318-15.096 1.276-22.892-3.108-11.833-10.199-19.764-22.426-22.045-11.194-2.083-22.336-2.32-32.459 4.356-3.366 2.212-6.603 1.683-9.525-.896-2.232-1.961-4.356-4.037-6.541-6.052-10.326-9.533-23.978-10.001-35.064-1.295-4.473 3.514-8.237 7.871-13.096 10.924-4.342 2.727-8.72 3.5-13.528.936-4.58-2.443-9.322-4.593-14.052-6.737-4.791-2.164-9.432-4.837-14.825-5.292-17.058-1.452-34.909 8.685-42.434 24.094-3.339 6.819-6.065 13.903-8.65 21.033-11.936 32.962-21.658 66.629-31.72 100.18-4.506 15.016.812 29.792 13.527 37.902 9.92 6.322 20.782 7.885 32.027 4.506 9.11-2.742 14.099-10.075 17.586-18.313 11.588-27.329 22.024-55.122 33.07-82.668 3.04-7.58 5.983-15.192 9.208-22.69 3.256-7.571 12.612-10.15 18.162-5.129 3.388 3.065 4.281 7.145 3.949 11.507-.365 4.662-2.171 8.962-3.867 13.244-7.187 18.17-14.507 36.287-21.726 54.443-1.459 3.672-3.04 7.314-3.685 11.255-1.105 6.767 1.574 12.765 7.109 15.152 5.647 2.437 11.509 2.844 17.363.719 6.812-2.469 10.883-7.802 14.019-13.964 10.775-21.16 21.467-42.372 32.235-63.533 4.974-9.776 10.035-19.506 15.116-29.224 1.888-3.602 4.1-7.015 7.627-9.254 3.184-2.015 6.615-2.165 9.879-.332 3.185 1.784 3.398 5.042 3.264 8.258-.073 1.729-.557 3.419-1.222 5.027-1.396 3.344-2.7 6.738-4.248 10.016-8.956 18.841-18.048 37.609-26.924 56.491-3.741 7.969-7.635 15.976-7.173 24.355z"/></svg>
