<svg xmlns="http://www.w3.org/2000/svg" width="252" height="207" viewBox="0 0 252 207">
  <path fill="#A9A6AF" d="M285.814,315.146 C285.828,334.509 298.258,351.623 315.885,357.438 C324.719,360.355 333.831,361.739 343.08,362.146 C349.683,362.431 356.275,361.97 362.376,358.929 C367.173,356.534 369.433,352.578 369.216,347.307 C368.999,342.001 366.623,338.033 361.548,335.921 C359.784,335.188 357.993,334.591 356.12,334.266 C350.522,333.267 344.897,332.426 339.327,331.322 C330.134,329.491 326.279,324.625 326.157,315.329 C326.05,307.106 328.281,299.35 330.811,291.677 C335.439,277.632 341.679,264.246 347.659,250.75 C353.432,237.717 359.484,224.791 363.562,211.064 C365.808,203.526 366.88,195.968 364.838,188.172 C361.73,176.339 354.639,168.408 342.412,166.127 C331.218,164.044 320.076,163.807 309.953,170.483 C306.587,172.695 303.35,172.166 300.428,169.587 C298.196,167.626 296.072,165.55 293.887,163.535 C283.561,154.002 269.909,153.534 258.823,162.24 C254.35,165.754 250.586,170.111 245.727,173.164 C241.385,175.891 237.007,176.664 232.199,174.1 C227.619,171.657 222.877,169.507 218.147,167.363 C213.356,165.199 208.715,162.526 203.322,162.071 C186.264,160.619 168.413,170.756 160.888,186.165 C157.549,192.984 154.823,200.068 152.238,207.198 C140.302,240.16 130.58,273.827 120.518,307.378 C116.012,322.394 121.33,337.17 134.045,345.28 C143.965,351.602 154.827,353.165 166.072,349.786 C175.182,347.044 180.171,339.711 183.658,331.473 C195.246,304.144 205.682,276.351 216.728,248.805 C219.768,241.225 222.711,233.613 225.936,226.115 C229.192,218.544 238.548,215.965 244.098,220.986 C247.486,224.051 248.379,228.131 248.047,232.493 C247.682,237.155 245.876,241.455 244.18,245.737 C236.993,263.907 229.673,282.024 222.454,300.18 C220.995,303.852 219.414,307.494 218.769,311.435 C217.664,318.202 220.343,324.2 225.878,326.587 C231.525,329.024 237.387,329.431 243.241,327.306 C250.053,324.837 254.124,319.504 257.26,313.342 C268.035,292.182 278.727,270.97 289.495,249.809 C294.469,240.033 299.53,230.303 304.611,220.585 C306.499,216.983 308.711,213.57 312.238,211.331 C315.422,209.316 318.853,209.166 322.117,210.999 C325.302,212.783 325.515,216.041 325.381,219.257 C325.308,220.986 324.824,222.676 324.159,224.284 C322.763,227.628 321.459,231.022 319.911,234.3 C310.955,253.141 301.863,271.909 292.987,290.791 C289.246,298.76 285.352,306.767 285.814,315.146 Z" transform="translate(-118 -156)"/>
</svg>
