<svg xmlns="http://www.w3.org/2000/svg" width="89" height="114" viewBox="0 0 89 114"><g fill="none"><path fill="#B58F52" d="M63.277 73.175L19.852 62.643l2.107-8.685L65.384 64.49l-2.107 8.685"/><path fill="#C78431" d="M66.188 62.785l-39.79-20.332 4.066-7.959 39.791 20.333-4.067 7.958"/><path fill="#E9812C" d="M72.317 52.022l-33.65-29.399 5.879-6.73 33.651 29.398-5.88 6.731"/><path fill="#E5712A" d="M81.575 42.561L56.481 5.588 63.876.569l25.093 36.973-7.394 5.019"/><path fill="#9D8469" d="M62.582 84.038l-44.618-2.436.487-8.924 44.618 2.436-.487 8.924"/><path fill="#797B7B" d="M71.833 105.059V68.035h8.929l.006 45.962H0l.002-46.001h8.937v37.063h62.894"/><path fill="#797B7B" d="M17.84 87.221h44.988v8.936H17.84z"/></g></svg>