<svg width="32" height="26" viewBox="0 0 32 26" xmlns="http://www.w3.org/2000/svg"><title>Shape</title><path d="M32 3.078c-1.198.53-2.47.879-3.77 1.033A6.589 6.589 0 0 0 31.113.48a13.148 13.148 0 0 1-4.169 1.593A6.55 6.55 0 0 0 22.154 0a6.565 6.565 0 0 0-6.394 8.058A18.64 18.64 0 0 1 2.228 1.201a6.523 6.523 0 0 0-.888 3.3 6.56 6.56 0 0 0 2.92 5.462 6.525 6.525 0 0 1-2.975-.82v.083a6.57 6.57 0 0 0 5.265 6.436c-.966.261-1.98.3-2.964.112a6.577 6.577 0 0 0 6.133 4.56 13.19 13.19 0 0 1-8.154 2.808c-.523 0-1.045-.03-1.565-.091A18.593 18.593 0 0 0 10.064 26c12.075 0 18.678-10.002 18.678-18.676 0-.284 0-.568-.02-.85a13.392 13.392 0 0 0 3.276-3.396H32z" fill="#1DA1F2" fill-rule="evenodd"/></svg>
