<svg xmlns="http://www.w3.org/2000/svg" width="257" height="180" viewBox="0 0 257 180">
  <path fill="#A9A6AF" d="M253.301054,38.8 C253.301054,38.8 255.900039,59.6 256,80.3 L256,99.7 C256,120.4 253.401015,141.1 253.401015,141.1 C253.401015,141.1 250.901991,158.7 243.204998,166.5 C233.408825,176.7 222.513081,176.7 217.515033,177.3 C181.729012,179.9 127.95002,180 127.95002,180 C127.95002,180 61.4759859,179.4 40.9839906,177.4 C35.2862163,176.4 22.4912144,176.7 12.795002,166.5 C5.09800859,158.7 2.59898477,141.1 2.59898477,141.1 C2.59898477,141.1 0,120.4 0,99.7 L0,80.3 C0,59.6 2.59898477,38.8 2.59898477,38.8 C2.59898477,38.8 5.09800859,21.2 12.695041,13.4 C22.4912144,3.2 33.3869582,3.2 38.3850059,2.6 C74.2709879,0 127.95002,0 127.95002,0 L128.04998,0 C128.04998,0 181.729012,0 217.415072,2.6 C222.513081,3.2 233.408825,3.2 243.105037,13.4 C250.80203,21.2 253.301054,38.8 253.301054,38.8 Z M101.6,123.2 L170.8,87.4 L101.6,51.3 L101.6,123.2 Z" transform="translate(.15)"/>
</svg>
