<svg xmlns="http://www.w3.org/2000/svg" width="257" height="180" viewBox="0 0 257 180"><path fill="#e52d27" d="M253.451 38.8s2.599 20.8 2.699 41.5v19.4c0 20.7-2.599 41.4-2.599 41.4s-2.499 17.6-10.196 25.4c-9.796 10.2-20.692 10.2-25.69 10.8-35.786 2.6-89.565 2.7-89.565 2.7s-66.474-.6-86.966-2.6c-5.698-1-18.493-.7-28.189-10.9-7.697-7.8-10.196-25.4-10.196-25.4S.15 120.4.15 99.7V80.3c0-20.7 2.599-41.5 2.599-41.5s2.499-17.6 10.096-25.4C22.641 3.2 33.537 3.2 38.535 2.6 74.421 0 128.1 0 128.1 0h.1s53.679 0 89.365 2.6c5.098.6 15.994.6 25.69 10.8 7.697 7.8 10.196 25.4 10.196 25.4zM101.75 123.2l69.2-35.8-69.2-36.1v71.9z"/></svg>
