<?xml version="1.0" encoding="UTF-8"?>
<svg width="1373" height="573" version="1.1" viewBox="0 0 1372.95 573.38" xmlns="http://www.w3.org/2000/svg" xmlns:xlink="http://www.w3.org/1999/xlink">
    <!--Generated by IJSVG (https://github.com/curthard89/IJSVG)-->
    <g fill="#00B188">
        <path d="M440.45,105.573h-411.083v-76.2092h411.084v76.2092Zm29.367,-105.573h-469.817v134.921h469.818v-134.921Z"></path>
        <g fill="#231F20">
            <path d="M29.367,134.921h-29.367v-134.921h29.367v53.3168h52.47v-53.317h29.367v134.921h-29.367v-55.9138h-52.47v55.9138" transform="translate(0, 222.994)"></path>
            <path d="M27.85,39.0662h34.9798c-0.6515,-9.9225 -4.747,-16.8384 -16.196,-16.8384c-8.638,0 -16.1962,3.677 -18.7838,16.839Zm22.237,61.3125c-29.7952,0 -50.087,-18.7838 -50.087,-49.6402c0,-30.0186 19.8636,-50.7385 46.2056,-50.7385c28.7155,0 42.9662,19.212 42.9662,47.9275v10.7974h-61.3218c3.4626,14.8837 15.1163,18.765 26.7794,18.765c10.1458,0 17.4806,-2.15 26.5467,-7.772h1.089v22.237c-7.7722,5.622 -18.793,8.4238 -32.178,8.4238" transform="translate(127.828, 259.696)"></path>
            <path d="M70.1738,39.5129l-15.1164,56.556h-25.6904l-29.367,-94.9892v-1.0797h28.0732l15.9727,56.7795l15.117,-56.7795h22.888l15.331,56.7795l16.196,-56.7795h26.994v1.0797l-29.367,94.9893h-25.7l-15.33,-56.556" transform="translate(223.469, 261.846)"></path>
            <path d="M32.8204,137.071c-23.3168,0 -32.8204,-9.2802 -32.8204,-31.0798v-105.992h28.501v104.046c0,6.6926 2.587,9.0662 8.2,9.0662c1.945,0 4.756,-0.643 6.478,-1.294h0.437v23.531c-2.374,0.856 -6.4788,1.722 -10.7978,1.722" transform="translate(378.924, 223.004)"></path>
            <path d="M27.85,39.0662h34.9798c-0.651,-9.9225 -4.747,-16.8384 -16.196,-16.8384c-8.628,0 -16.196,3.677 -18.783,16.839Zm22.237,61.3125c-29.7952,0 -50.087,-18.7838 -50.087,-49.6402c0,-30.0186 19.8636,-50.7385 46.2055,-50.7385c28.7156,0 42.9663,19.212 42.9663,47.9275v10.7974h-61.321c3.454,14.8837 15.117,18.765 26.77,18.765c10.156,0 17.49,-2.15 26.566,-7.772h1.08v22.237c-7.772,5.622 -18.784,8.4238 -32.178,8.4238" transform="translate(430.537, 259.696)"></path>
            <path d="M108.179,26.3327h21.1573v22.8793h-21.1573v39.0755c0,8.4238 3.2392,12.3146 11.877,12.3146c2.3737,0 5.3988,-0.224 8.638,-1.304h0.6423v22.451c-3.6674,1.303 -9.2802,2.802 -17.4806,2.802c-23.112,0 -32.1782,-10.574 -32.1782,-34.971v-40.369h-36.4878v39.0751c0,8.424 3.2393,12.3146 11.868,12.3146c2.3828,0 5.408,-0.2234 8.647,-1.303h0.6424v22.451c-3.6674,1.3032 -9.2895,2.802 -17.4807,2.802c-23.112,0 -32.178,-10.574 -32.178,-34.9708v-40.369h-14.688v-22.879h14.688v-26.332h28.502v26.3327h36.488v-26.3325h28.502v26.3327" transform="translate(528.552, 235.514)"></path>
            <path d="M47.9182,66.2742c14.9116,0 22.023,-8.4146 22.023,-20.5058c0,-12.5287 -7.1114,-20.9432 -22.023,-20.9432h-18.5698v41.449h18.57Zm51.8276,-20.5058c0,29.367 -19.6495,45.3305 -49.454,45.3305h-20.9434v43.822h-29.3484v-134.921h50.2918c29.8045,0 49.454,15.9727 49.454,45.768" transform="translate(706.002, 222.994)"></path>
            <path d="M58.7342,67.9957v-8.2004c-4.319,-2.3642 -9.9224,-3.23 -15.7586,-3.23c-9.28,0 -14.893,3.444 -14.893,11.2164c0,7.9956 5.613,11.449 14.028,11.449c7.987,0 14.037,-4.105 16.625,-11.235Zm0.8657,20.7292c-6.2644,7.5582 -15.5353,11.2256 -25.4856,11.2256c-18.7745,0 -34.1143,-11.4303 -34.1143,-31.7406c0,-18.7745 15.3398,-31.294 37.3535,-31.294c6.9066,0 14.046,1.0798 21.3807,3.23v-1.7127c0,-10.3692 -5.827,-14.893 -21.148,-14.893c-9.727,0 -19.0072,2.7925 -27.0028,7.3348h-1.071v-22.8886c7.335,-4.3097 20.301,-7.9864 33.025,-7.9864c28.939,0 44.697,13.8132 44.697,37.9957v60.2235h-27.635v-9.4943" transform="translate(809.62, 259.696)"></path>
            <path d="M0,50.301c0,-30.875 21.8182,-50.301 50.3196,-50.301c10.1458,0 19.64,2.1595 26.77,7.3348v24.397h-1.089c-6.2643,-4.747 -13.599,-7.558 -22.0136,-7.558c-14.2507,0 -25.048,9.727 -25.048,26.128c0,16.401 10.7973,25.905 25.048,25.905c8.4145,0 15.7493,-2.811 22.0137,-7.567h1.089v24.397c-7.13,5.1846 -16.6243,7.344 -26.77,7.344c-28.5015,0 -50.3197,-19.2025 -50.3197,-50.0776" transform="translate(911.32, 259.696)"></path>
            <path d="M28.4922,91.3218v43.5992h-28.4922v-134.921h28.4922v76.8477l28.7248,-37.9957h32.383v1.0797l-34.5425,43.6085l34.5424,50.301v1.0798h-32.6063l-28.5014,-43.5992" transform="translate(1006.33, 222.995)"></path>
            <path d="M58.7263,67.9957v-8.2004c-4.3096,-2.3642 -9.9317,-3.23 -15.7586,-3.23c-9.2802,0 -14.893,3.444 -14.893,11.2164c0,7.9956 5.6128,11.449 14.018,11.449c8.005,0 14.046,-4.105 16.6336,-11.235Zm0.8657,20.7292c-6.265,7.5582 -15.554,11.2256 -25.477,11.2256c-18.793,0 -34.115,-11.4303 -34.115,-31.7406c0,-18.7745 15.321,-31.294 37.363,-31.294c6.906,0 14.018,1.0798 21.362,3.23v-1.7127c0,-10.3692 -5.827,-14.893 -21.158,-14.893c-9.7087,0 -19.0075,2.7925 -26.9938,7.3348h-1.0796v-22.8886c7.344,-4.3097 20.301,-7.9864 33.0345,-7.9864c28.948,0 44.707,13.8132 44.707,37.9957v60.2235h-27.645v-9.4943" transform="translate(1101.11, 259.696)"></path>
            <path d="M27.6353,16.6243c5.1753,-10.5833 12.7428,-16.6243 23.3262,-16.6243c3.8814,0 7.763,0.8657 9.2615,1.7314v27.199h-1.07c-3.239,-1.303 -7.12,-2.159 -12.519,-2.159c-8.852,0 -15.758,5.185 -18.141,15.107v55.272h-28.493v-96.069h27.636v15.545" transform="translate(1208.64, 260.767)"></path>
            <path d="M68.0144,102.313v-30.875c-4.747,-6.9066 -11.0022,-9.9225 -18.1415,-9.9225c-12.51,0 -20.934,9.0755 -20.934,25.4763c0,16.401 8.424,25.253 20.934,25.253c7.1393,0 13.3944,-3.0252 18.1415,-9.9318Zm0.8563,22.6746c-6.041,7.773 -15.5445,12.082 -28.492,12.082c-24.62,0 -40.3787,-22.442 -40.3787,-50.077c0,-27.635 15.7587,-50.301 40.3786,-50.301c12.5194,0 21.5855,3.891 27.6358,11.012v-47.704h28.5014v134.911h-27.645v-9.922" transform="translate(1276.43, 223.005)"></path>
            <path d="M0,0h83.3448v16.401h-64.561v41.2256h58.5108v15.982h-58.5108v44.9024h64.561v16.401h-83.3448v-134.912" transform="translate(0, 401.98)"></path>
            <path d="M46.4184,0.0024c21.3715,0 33.2486,14.0366 33.2486,37.1208v59.8046h-17.918v-59.368c0,-12.306 -6.264,-21.158 -19.863,-21.158c-11.225,0 -20.729,7.13 -23.968,17.266v63.258h-17.918v-94.98h17.918v13.813c5.613,-8.852 15.117,-15.7588 28.502,-15.7588" transform="translate(105.797, 439.964)"></path>
            <path d="M34.3294,25.2441h24.3965v15.3304h-24.3965v51.1573c0,10.788 5.6128,14.4648 15.7586,14.4648c2.801,0 5.826,-0.428 7.986,-1.2938h0.651v15.3212c-2.588,1.079 -6.265,1.945 -11.226,1.945c-22.247,0 -31.089,-10.155 -31.089,-28.707v-52.888h-16.41v-15.33h16.41v-25.244h17.918v25.243" transform="translate(199.295, 416.668)"></path>
            <path d="M18.5697,40.1458h47.2852c-0.6423,-14.0273 -7.5582,-24.8154 -22.237,-24.8154c-13.5992,0 -22.4605,10.1458 -25.0482,24.8154Zm28.2873,58.725c-27.859,0 -46.857,-18.5698 -46.857,-48.3558c0,-29.7952 17.704,-50.515 43.4037,-50.515c26.128,0 39.727,18.7837 39.727,46.6242v8.2098h-65.2126c1.9454,19.212 14.26,28.492 31.3125,28.492c10.584,0 18.133,-2.3735 26.557,-8.6378h0.652v15.768c-7.772,6.041 -17.927,8.4145 -29.581,8.4145" transform="translate(269.461, 439.967)"></path>
            <path d="M17.9176,16.1868c4.105,-10.146 13.1803,-16.1868 23.531,-16.1868c4.114,0 7.7815,0.6422 9.2894,1.508v17.6946h-0.642c-2.597,-1.2845 -6.916,-1.936 -11.235,-1.936c-9.708,0 -17.918,6.469 -20.943,17.2665v61.955h-17.918v-94.98h17.918v14.679" transform="translate(373.749, 440.404)"></path>
            <path d="M41.4584,82.6745c17.704,0 28.0733,-14.0272 28.0733,-33.2484c0,-18.9886 -10.3692,-33.23 -28.0733,-33.23c-9.7176,0 -18.7837,5.827 -23.531,15.0978v36.497c4.7473,9.271 13.8134,14.8837 23.531,14.8837Zm3.0252,-82.6745c28.278,0 43.3944,23.1027 43.3944,49.426c0,26.3513 -15.117,49.4448 -43.395,49.4448c-11.663,0 -21.595,-6.041 -26.556,-12.5288v47.0712h-17.927v-131.468h17.927v10.788c4.961,-6.6925 14.893,-12.7335 26.556,-12.7335" transform="translate(440.888, 439.966)"></path>
            <path d="M17.9187,16.1868c4.0956,-10.146 13.171,-16.1868 23.531,-16.1868c4.1048,0 7.7722,0.6422 9.28,1.508v17.6946h-0.642c-2.5878,-1.2845 -6.9067,-1.936 -11.2257,-1.936c-9.718,0 -17.919,6.469 -20.944,17.2665v61.955h-17.918v-94.98h17.918v14.679" transform="translate(549.932, 440.404)"></path>
            <path d="M11.449,0c6.2644,0 11.4397,4.9612 11.4397,11.2256c0,6.2644 -5.1753,11.2256 -11.4397,11.2256c-6.041,0 -11.449,-4.9612 -11.449,-11.2256c0,-6.2644 5.408,-11.2256 11.449,-11.2256" transform="translate(615.127, 403.488)"></path>
        </g>
        <path fill="#231F20" d="M0.0006,94.98h17.9274v-94.98h-17.928v94.98Z" transform="translate(617.723, 441.912)"></path>
        <g fill="#231F20">
            <path d="M39.9503,41.449c13.5992,4.3097 28.7062,9.9225 28.7062,28.0547c0,19.4353 -15.9727,29.367 -36.4785,29.367c-12.528,0 -25.048,-3.025 -32.178,-8.638v-17.0522h0.866c7.996,7.3347 19.864,10.574 31.089,10.574c10.146,0 19.222,-3.891 19.222,-12.0913c0,-8.4146 -7.549,-10.36 -22.46,-15.3212c-13.385,-4.319 -28.278,-9.2895 -28.278,-27.1983c0,-18.3556 15.107,-29.1437 34.329,-29.1437c11.2256,0 21.1573,2.3736 29.1437,7.7723v17.2758h-0.6425c-7.763,-6.2643 -16.8475,-9.941 -28.073,-9.941c-11.2255,0 -17.49,4.9705 -17.49,11.663c0,7.5582 6.9067,9.7084 22.2464,14.679" transform="translate(659.61, 439.966)"></path>
            <path d="M18.5697,40.1458h47.276c-0.6424,-14.0273 -7.549,-24.8154 -22.2372,-24.8154c-13.5992,0 -22.4512,10.1458 -25.0388,24.8154Zm28.278,58.725c-27.85,0 -46.8477,-18.5698 -46.8477,-48.3558c0,-29.7952 17.704,-50.515 43.3944,-50.515c26.137,0 39.727,18.7837 39.727,46.6242v8.2098h-65.204c1.945,19.212 14.25,28.492 31.303,28.492c10.592,0 18.141,-2.3735 26.556,-8.6378h0.651v15.768c-7.763,6.041 -17.918,8.4145 -29.581,8.4145" transform="translate(743.821, 439.967)"></path>
        </g>
    </g>
</svg>