<svg xmlns="http://www.w3.org/2000/svg" width="223" height="222" viewBox="0 0 223 222">
  <g fill="none">
    <path fill="#0002FF" d="M21.1,47.3 C-14,97.3 -1.9,166.3 48.1,201.4 C98.1,236.5 167.1,224.4 202.2,174.4 C237.3,124.4 225.2,55.4 175.2,20.4 C125.2,-14.6 56.2,-2.6 21.1,47.3 Z M144.2,133.8 C131.5,151.8 106.7,156.2 88.6,143.5 C70.6,130.8 66.2,106 78.9,87.9 C91.6,69.9 116.4,65.5 134.5,78.2 C152.5,90.9 156.9,115.8 144.2,133.8 Z" opacity=".82"/>
    <path fill="#00FF8D" d="M134.5,78.2 L134.5,78.2 C140.2,82.2 144.5,87.3 147.3,93.1 C148.4,95.4 149.4,97.8 150,100.3 C150.5,102.1 150.9,104 151.1,105.9 C151.3,107.2 151.4,108.4 151.4,109.7 C151.5,113.5 151.1,117.4 150.1,121.2 C149.8,122.5 149.4,123.7 148.9,124.9 C148.7,125.5 148.4,126.1 148.2,126.7 C147.1,129.1 145.8,131.5 144.2,133.7 L144.2,133.7 L144.2,133.7 C143.4,134.8 142.6,135.9 141.7,136.9 C140.8,137.9 139.9,138.9 138.9,139.8 C137.9,140.7 136.9,141.6 135.9,142.4 C122.4,152.8 103.3,153.7 88.6,143.5 L88.6,143.5 L48,201.4 C98,236.5 167,224.4 202,174.4 C237.1,124.4 225,55.4 175,20.4 L134.5,78.2 Z"/>
    <path fill="#00D5FF" d="M72.2,104.7 L2.3,93.8 C-2.4,124 5.6,153.2 22.2,176.1 L79.3,134.4 C73.1,125.8 70.6,115.1 72.2,104.7 Z" opacity=".46"/>
    <path fill="#00E1FF" d="M150.2,101.6 C151.9,108.6 151.7,116.1 149.3,123.4 C144.8,137.1 133.7,146.6 120.6,149.8 L136.7,218.6 C196.2,204.6 233,144.9 219.1,85.4 L150.2,101.6 Z" opacity=".95"/>
    <path fill="#00CBFF" d="M147,93.1 L210.7,61.9 C197.2,34.5 173.8,15.2 147,6.1 L124.2,73 C134.1,76.3 142.4,83.6 147,93.1 Z" opacity=".54"/>
  </g>
</svg>
